<?xml version="1.0" standalone="no"?>
<!DOCTYPE svg PUBLIC "-//W3C//DTD SVG 1.1//EN" "http://www.w3.org/Graphics/SVG/1.1/DTD/svg11.dtd" >
<svg xmlns="http://www.w3.org/2000/svg">
<metadata>
Created by FontForge 20120731 at Wed Dec 21 13:53:01 2016
 By admin
</metadata>
<defs>
<font id="iconfont" horiz-adv-x="1024" >
  <font-face 
    font-family="iconfont"
    font-weight="500"
    font-stretch="normal"
    units-per-em="1024"
    panose-1="2 0 6 3 0 0 0 0 0 0"
    ascent="896"
    descent="-128"
    x-height="792"
    bbox="0 -212 1024 896"
    underline-thickness="0"
    underline-position="0"
    unicode-range="U+0078-F013E"
  />
<missing-glyph 
 />
    <glyph glyph-name=".notdef" 
 />
    <glyph glyph-name=".null" horiz-adv-x="0" 
 />
    <glyph glyph-name="nonmarkingreturn" horiz-adv-x="341" 
 />
    <glyph glyph-name="x" unicode="x" horiz-adv-x="1001" 
d="M281 543q-27 -1 -53 -1h-83q-18 0 -36.5 -6t-32.5 -18.5t-23 -32t-9 -45.5v-76h912v41q0 16 -0.5 30t-0.5 18q0 13 -5 29t-17 29.5t-31.5 22.5t-49.5 9h-133v-97h-438v97zM955 310v-52q0 -23 0.5 -52t0.5 -58t-10.5 -47.5t-26 -30t-33 -16t-31.5 -4.5q-14 -1 -29.5 -0.5
t-29.5 0.5h-32l-45 128h-439l-44 -128h-29h-34q-20 0 -45 1q-25 0 -41 9.5t-25.5 23t-13.5 29.5t-4 30v167h911zM163 247q-12 0 -21 -8.5t-9 -21.5t9 -21.5t21 -8.5q13 0 22 8.5t9 21.5t-9 21.5t-22 8.5zM316 123q-8 -26 -14 -48q-5 -19 -10.5 -37t-7.5 -25t-3 -15t1 -14.5
t9.5 -10.5t21.5 -4h37h67h81h80h64h36q23 0 34 12t2 38q-5 13 -9.5 30.5t-9.5 34.5q-5 19 -11 39h-368zM336 498v228q0 11 2.5 23t10 21.5t20.5 15.5t34 6h188q31 0 51.5 -14.5t20.5 -52.5v-227h-327z" />
    <glyph glyph-name="shezhi" unicode="&#xf013e;" 
d="M1017 290q2 -12 -1 -29.5t-10.5 -35.5t-17.5 -32.5t-22.5 -20.5t-21.5 -6t-20 4q-11 3 -26 5.5t-31 1t-32 -6.5t-27 -17q-25 -26 -29 -59t9 -62q11 -21 -3 -41q-6 -8 -19 -17t-29 -16t-33.5 -11t-30.5 -4q-9 0 -17.5 7t-11.5 15h-1q-11 32 -38 55t-63 23q-35 0 -63 -23
t-40 -54q-5 -12 -15 -17.5t-23 -5.5q-14 0 -32 5t-36 12.5t-32 18t-21 20.5q-6 7 -6.5 17t8.5 27q11 24 8.5 54t-26.5 56q-14 15 -34.5 19.5t-39.5 3.5q-21 -1 -44 -8q-14 -4 -28 2q-12 4 -21.5 19t-17 33t-12 37t-1.5 31q3 22 20 28q31 13 55.5 41t24.5 63q0 36 -24.5 62.5
t-55.5 38.5q-9 3 -15 15t-6 24q0 13 4 29.5t10.5 32t15 28.5t19.5 19q8 5 15.5 4t16.5 -4q31 -13 64.5 -8t58.5 29q13 13 18.5 30.5t7 35t0 32t-2.5 20.5q-2 6 -3.5 14.5t1.5 14.5q6 14 22 24.5t34.5 18t35.5 11t28 3.5q13 0 20.5 -8.5t10.5 -18.5q12 -27 37.5 -48t60.5 -21
t63 20t39 50q4 9 13 17.5t18 8.5q14 0 31 -4t33.5 -11.5t30 -18.5t21.5 -24q6 -9 4 -18.5t-5 -13.5q-13 -30 -8 -62.5t30 -57t60.5 -27.5t66.5 12q8 5 20 4t20 -9q15 -15 27 -44t16 -59q2 -17 -5.5 -27t-16.5 -13q-31 -11 -53.5 -39t-22.5 -64q0 -35 18.5 -61t49.5 -37
q7 -5 12 -9q12 -9 16 -23zM541 198q46 0 87 17t71 48t47.5 71.5t17.5 86.5t-17.5 86.5t-47.5 70.5t-71 47.5t-87 17.5t-86.5 -17.5t-71 -47.5t-48 -70.5t-17.5 -86.5t17.5 -86.5t48 -71.5t71 -48t86.5 -17z" />
    <glyph glyph-name="shouye" unicode="&#xf004a;" 
d="M583 438q-30 28 -53 28q-26 0 -57 -28q-7 -8 -280 -254v-188q0 -13 9 -22t22 -9h173q7 0 11.5 4.5t4.5 11.5v134q0 7 4.5 11.5t10.5 4.5h195q7 0 11.5 -4.5t4.5 -11.5v-134q0 -7 4.5 -11.5t10.5 -4.5h177q13 0 22 9t9 22v187q-271 247 -279 255zM976 271.5
q-1 21.5 -20 38.5l-22 22q-17 17 -42 40.5t-55 52.5q-29 28 -61 58q-31 30 -62 59q-28 27 -54 52q-24 22 -42 40q-17 16 -22 20q-28 27 -67.5 26.5t-72.5 -33.5q-5 -4 -32 -29t-65 -61q-38 -35 -82 -75q-42 -38 -83 -76q-37 -34 -66 -61q-28 -25 -33 -30q-14 -14 -15 -36
t17 -38q16 -14 38 -13.5t36 11.5q4 3 26 23q23 21 52 48q31 28 66.5 60.5t67.5 62.5q31 29 57 53q24 22 33 30q27 24 55 25t56 -25q6 -5 30 -27q24 -23 55 -52q33 -31 68 -64q37 -34 68 -63q39 -36 55 -51q22 -21 27 -24q13 -12 35.5 -13t39.5 14q15 14 14 35.5z" />
    <glyph glyph-name="yonghu" unicode="&#xe604;" 
d="M508 -152q-90 0 -172.5 35.5t-142 95t-94.5 141.5t-35 172.5t35 173t94.5 142t142 94.5t172.5 35t172.5 -35t142 -94.5t94.5 -142t35 -173t-35 -172.5t-94.5 -141.5t-142 -95t-172.5 -35.5v0zM605 133l18 15q5 41 12.5 56t16.5 37t14 37l5 15q18 13 18 35q0 10 -4.5 19
t-9.5 13l-4 4q7 63 7 107q0 68 -42 105t-120 37q-82 0 -130.5 -35.5t-48.5 -106.5q0 -20 3.5 -46.5t7.5 -43.5l3 -17q-18 -13 -18 -36q0 -10 4.5 -18.5t9.5 -12.5l4 -4q21 -65 36 -89q3 -6 6.5 -20t4.5 -25l1 -11l18 -15q1 -10 1.5 -25.5t-4 -44.5t-15.5 -37
q-12 -7 -75 -24.5t-75 -24.5q3 -2 13.5 -10.5t36 -23.5t55 -28t72.5 -22.5t85.5 -9.5t85 9.5t72.5 23t54 28t36.5 24t12.5 10.5q-13 7 -75 24t-74 24q-18 11 -18 107v0z" />
    <glyph glyph-name="zuzhijigou" unicode="&#xe635;" 
d="M510.5 460h-138.5q-29 0 -29 30q1 69 0 125q0 30 29 30h280q29 1 28 -30q-1 -74 1 -123q0 -18 -8 -25t-26 -7h-136.5zM513 -45h-83q-16 -1 -23.5 6t-7.5 24q1 47 1 126q-1 30 29 30h167q28 0 28 -29q-1 -68 0 -131q0 -26 -26 -26h-85v0zM175 -45h-85q-27 0 -26 26
q1 62 0 133q-1 27 26 27h170q27 0 27 -27q-1 -67 0 -134q0 -26 -27 -25h-43h-42zM852 141h41h41q27 0 26 -27q-1 -70 0 -133q1 -26 -26 -26h-170q-27 0 -27 28q1 64 0 129q0 29 30 29h85zM866 328v-147h-34v109h-301v-89h-38v90h-300v-110h-34v145h333v73h38v-71h336z" />
    <glyph glyph-name="msnui-calendar" unicode="&#xe684;" 
d="M848 821v-73q0 -35 -25 -59.5t-59.5 -24.5t-59 24.5t-24.5 59.5v84h-336v-84q0 -35 -24.5 -59.5t-59 -24.5t-59.5 24.5t-25 59.5v73q-49 -17 -80.5 -60t-31.5 -97v-560q0 -69 49.5 -118.5t118.5 -49.5h560q69 0 118.5 49.5t49.5 118.5v560q0 54 -31.5 97t-80.5 60z
M848 104q0 -23 -16.5 -39.5t-39.5 -16.5h-560q-23 0 -39.5 16.5t-16.5 39.5v448h672v-448zM624 272h112v-112h-112v112zM624 440h112v-112h-112v112zM456 272h112v-112h-112v112zM456 440h112v-112h-112v112zM288 272h112v-112h-112v112zM288 440h112v-112h-112v112z
M763.5 720q-11.5 0 -19.5 8t-8 20v84h56v-84q0 -12 -8.5 -20t-20 -8zM260.5 720q-11.5 0 -20 8t-8.5 20v84h56v-84q0 -12 -8 -20t-19.5 -8z" />
    <glyph glyph-name="iconfontcolor19" unicode="&#xe680;" 
d="M1024 300q0 139 -68.5 257t-186.5 186.5t-257 68.5t-257 -68.5t-186.5 -186.5t-68.5 -257q0 -110 44 -207.5t121 -169.5q13 -16 38 -31q137 -104 309 -104q181 0 322 114q9 7 17 14q81 72 127 171.5t46 212.5zM48 300q0 192 136 328t328 136t328 -136t136 -328
q0 -168 -108 -297q-3 15 -8 26.5t-14.5 20t-16.5 14t-22.5 10t-24 6.5t-29.5 6t-31 6q-6 1 -22.5 4.5t-23 5t-20.5 5t-19.5 6.5t-15 8.5t-13 11t-8.5 14t-5.5 18.5t1 23.5t5.5 28.5q15 12 29.5 34.5t29.5 42.5t35 28q12 18 11.5 40.5t-11.5 35.5q-7 9 -15 10.5t-10 7.5
q-1 15 2.5 60.5t-0.5 73t-23 40.5q-9 5 -20 5q-3 0 -11 -0.5t-12 -0.5q-9 0 -15 3q-11 4 -23.5 22t-26.5 19h-21q-20 -14 -64 -21t-48 -8q-4 -2 -5 -2q-29 -9 -43 -36t-14 -88q0 -11 0.5 -33t0.5 -31q-25 -13 -26 -50q-1 -19 5 -34q3 -11 18 -24t20 -18q8 -10 22 -33.5
t22 -32.5q10 -9 19 -11v-68q-9 -12 -19 -20q-21 -18 -58.5 -29.5t-70 -17t-64.5 -22t-46 -43.5q-3 -6 -6 -11.5t-3 -6.5q-112 131 -112 302z" />
    <glyph glyph-name="rizhi" unicode="&#xe6ab;" 
d="M504 -42q4 -3 9 -3q8 0 24 11l31 22q7 2 12 4q4 -2 4 -3l9 -5l13 18l-9 5v1h-1q6 13 -4 28q-7 11 -21 19t-28 7q-19 -1 -25 -14q-7 -14 9 -39q-1 0 -1 -1q-4 0 -10 1q-37 4 -43 13q-1 3 5 15q9 18 3 28q-7 11 -32 13q-29 2 -40 -15q-19 -29 29 -94l19 11q-14 20 -23.5 42
t-4.5 31q3 5 18 4q4 -1 7 -1.5t4.5 -0.5h1.5q0 -2 -4 -9q-11 -22 -3 -35q11 -17 57 -23q-10 -14 -10.5 -21t4.5 -9zM740 99v-189h-611v780h611v-346l18 15v-1l46 42v0v0v351v0h-740v0v-902v0h740v0v300v0v0zM828 391v0l88 -80v0l42 37v0l-89 81v0l-41 -38v0zM618 200l88 -81
v0l201 183v0l-88 80v0l-201 -182v0zM568 74v0l113 23v0l10 8v0l-88 81v0l-10 -9zM540 40q1 1 5 1h1q16 0 26 -16q3 -4 3 -6h-2l-15 -11h-3l1 1l-5 6q-15 18 -11 25v0zM625 -45l2 21q-27 2 -52 -9t-33.5 -19t-12.5 -14l19 -12v0q4 5 10.5 11t26 14.5t40.5 7.5v0zM663 -49
l3 21l-23 3l-3 -22zM278 644h312v-42h-312v42zM183 534h487v-24h-487v24zM183 462h487v-24h-487v24zM183 389h487v-24h-487v24zM183 314h487v-24h-487v24z" />
    <glyph glyph-name="iconfontweibiaoti1015" unicode="&#xe63c;" 
d="M361 311l-46 -111h92zM112 588h800v-100h-800v100zM553 319h90v-76h-90v76zM112 -12h800v450h-800v-450zM711 120h22v203h-22v29h74v-29h-22v-203h22v-29h-74v29zM519 351h151v-141h-117v-119h-34v260zM344 351h34l108 -260h-34l-34 82h-115l-34 -82h-33zM553 319h90v-76
h-90v76z" />
    <glyph glyph-name="quanxian" unicode="&#xe659;" 
d="M512 493q-27 0 -46 -19t-19 -45.5t19 -45.5t46 -19t46 19t19 45.5t-19 45.5t-46 19zM783 698q-151 0 -271 89q-120 -89 -271 -89q-53 0 -109 19v-426q0 -61 41 -141q42 -83 120 -169q70 -78 148 -137q29 -22 55 -37q11 -7 23 0q26 16 56 39q80 61 151 139q80 87 124 169
q42 79 42 137v426q-56 -19 -109 -19zM553 256v-186q0 -17 -12 -29t-29 -12v0q-17 0 -29 12t-12 29v186q-59 14 -97.5 62t-38.5 111q0 73 52 125t125 52t125 -52t52 -125q0 -63 -38.5 -111t-97.5 -62z" />
    <glyph glyph-name="weifachuli" unicode="&#xe62c;" horiz-adv-x="1027" 
d="M946 588q-5 18 -16 33q-10 14 -26 22l-2 2l-20 11v0v0q-38 20 -56.5 30.5t-48 32.5t-45.5 43q-30 35 -55 56q-67 52 -142 52q-73 0 -143 -52q-25 -21 -55 -56q-16 -21 -44.5 -42t-49 -32.5t-55.5 -30.5l-2 -1l-20 -11v0q-16 -8 -28 -24q-12 -15 -16 -32v-2q-5 -19 -4 -36
q2 -18 12 -35v0l68 -124q8 -13 19 -16l-2 -9v-4q-23 -5 -39 -31v0q-18 -27 -18 -64t18 -64v0v0q22 -32 53 -32h7q9 -24 22 -53v0q20 -39 44 -70q37 -46 77 -78q73 -60 155.5 -60t155.5 60q39 31 78 78q26 33 44 69q14 27 23 53h6q32 0 52 30l1 1q18 27 18 65q0 36 -18 63v0
q-15 23 -39 30v4v0v0l-1 9q12 6 18 16l70 124q7 12 11 33v2q-5 33 -7 40v0zM856 308v0v0q10 -15 10 -39q0 -22 -10 -41v0q-7 -10 -16 -10h-3v0q-2 0 -5 2q-7 6 -16 4.5t-14 -8.5q-2 -5 -2 -7v0q-10 -34 -27 -69q-18 -33 -40 -62q-33 -41 -70 -71q-65 -49 -128 -49
q-66 0 -129 49q-34 26 -70 71v0v0q-21 28 -39 62v0q-20 42 -27 68q-3 9 -11 13.5t-17 2.5l-6 -4q-1 0 -2 -0.5t-2 -0.5h-3q-8 0 -17 12q-10 15 -10 40q0 23 10 40v0q10 12 17 12h1v0h2q9 -2 16 3.5t9 14.5v2q0 8 2 22q1 3 2 9t2 9l11 -11q18 -16 29 -23v0l20 -10
q-9 -7 -14 -14q-25 -30 -25 -68q0 -44 30.5 -74.5t74.5 -30.5q61 0 98 35q33 31 40 80h22q7 -49 40 -80q37 -35 98 -35q44 0 74.5 30.5t30.5 74.5q0 37 -26 68l-7 7l34 17v0v0q4 3 12 8.5t9 6.5q1 -3 1.5 -10t0.5 -11q1 -9 8 -15t16 -5h4v0h1q0 -1 4 -5.5t7 -9.5v0zM771 430
v0v0q11 -2 24 -7h1q5 -2 6 -2q0 -1 -0.5 -2.5t-0.5 -2.5q-3 -5 -14 -16q-5 -6 -21 -17v0q-14 -9 -32 -16q-26 -10 -39 -12q-20 -7 -45 -10q-34 -5 -52 -7q-36 -2 -53 -2q-36 0 -53 2q-27 1 -52 7q-32 6 -45 10q-17 4 -40 12q-14 6 -30 16v0q-15 9 -23 17q-13 13 -14 20v0
q1 2 6 3v0q3 1 11 3t13 4q5 1 16.5 3t16.5 3q3 0 17 2t23 2q30 3 47 4q36 2 53 2q54 2 109 0q19 0 53 -2q32 -2 46 -4v0q8 0 21 -2t19 -2v0q4 -1 15.5 -2.5t16.5 -3.5v0zM589 293v0l11 1q30 2 55 7q23 3 45 10q15 -5 26 -18q15 -17 15 -40q0 -26 -18 -43q-18 -18 -43 -18
q-45 0 -68 23q-26 24 -26 65q0 6 3 13v0v0zM478 280v0q0 -39 -26 -65q-24 -23 -67 -23q-25 0 -43 18q-18 17 -18 43q0 23 14 40q14 16 38 20v0l5 -1q23 -7 50 -10q6 -1 13 -2.5t16.5 -2.5t14.5 -2l1 -2v0v0q2 -4 2 -13v0zM874 552v0l-1 -1l-50 -91q-1 1 -3 1.5t-4 1.5l-4 2
h-2q-12 5 -27 7l-1 1q-6 1 -19 3t-18 3q-13 2 -40 4h-2q-17 3 -49 5q-8 0 -26 0.5t-27 1.5q-56 2 -113 0q-20 0 -54 -2q-32 -2 -48 -5q-17 -1 -43 -5q-21 -2 -36 -7q-15 -3 -28 -7q-17 -5 -26 -16l-3 -3l-58 107v0q-3 7 -3 8v0v9v1q0 3 4 7q1 2 5 4l21 12l2 1q37 19 61.5 33
t57 39t52.5 51t43 44q48 37 97 37q52 0 97 -37q24 -18 43 -44q21 -27 56 -53t54.5 -37.5t63.5 -34.5v0l21 -12q15 -11 7 -28v0zM636 702v0l-2 9v1q-2 10 -10 16q-9 7 -20 7h-144q-10 0 -16 -5l-2 -2q-9 -6 -10 -16v0q-12 -47 0 -92v0q6 -22 19 -44q12 -21 29 -36v0
q18 -16 40 -26v0q7 -3 11.5 -3t10.5 3q26 11 40 26q16 14 30 36q12 17 20 44q13 40 4 82v0zM591 632v0q-6 -21 -15 -33q-11 -17 -22 -27q-10 -7 -22 -14q-15 9 -21 14v0q-13 11 -22 27q-10 14 -13 33q-5 15 -5 36v8v2v7v0l2 6h121v-6v-1l1 -7v0v-8q0 -22 -4 -37v0z" />
    <glyph glyph-name="2" unicode="&#xe612;" 
d="M527 849q-91 0 -174 -35.5t-143 -95.5t-95 -143t-35 -174t35 -174t95 -143t143 -95.5t174 -35.5t174 35.5t143 95.5t95.5 143t35.5 174t-35.5 174t-95.5 143t-143 95.5t-174 35.5zM495 434l141 140l64 -64l-141 -140zM550 361l-90 -26l26 90zM721 261q0 -28 -19.5 -47.5
t-47.5 -19.5h-267q-28 0 -47.5 19.5t-19.5 47.5v267q0 28 19.5 47.5t47.5 19.5h214l-40 -40h-161q-16 0 -28 -12t-12 -28v-241q0 -17 12 -28.5t28 -11.5h241q17 0 28.5 11.5t11.5 28.5v161l40 40v-214v0zM729 539l-19 -19l-64 64l19 19q5 5 12.5 5.5t12.5 -4.5l40 -40
q5 -5 4.5 -12.5t-5.5 -12.5z" />
    <glyph glyph-name="iconfontpczhenjijiance-copy" unicode="&#xe600;" 
d="M599 346l-88 226l-96 -181l-54 55l-90 -56l25 -15l58 36l71 -72l81 153l90 -231l76 161l32 -66l34 5l-65 139zM867 170v469q0 13 -8.5 22.5t-20.5 9.5h-651q-12 0 -20.5 -9.5t-8.5 -22.5v-469h-96v-39q0 -13 8.5 -22t20.5 -9h846q12 0 20.5 9t8.5 22v39h-99zM574 157
h-120v21h120v-21zM807 209h-589v397h589v-397zM807 209z" />
    <glyph glyph-name="quyu" unicode="&#xe627;" 
d="M981 692q-7 -9 -16 -8t-14 11q-7 15 -36 15q-17 0 -29 18q-5 6 -13.5 18t-11.5 17q-13 19 -32 16q-6 -1 -7 3h-11q-2 -3 -5 -4.5t-8.5 -2t-6.5 -0.5q-9 -2 -15 -7.5t-2 -10.5q4 -4 5.5 -8t1 -6t-2.5 -7t-3 -6q-6 -17 -6 -19q-1 -14 -6.5 -19t-19.5 -4q-8 0 -9 -2
q-12 -28 -12 -37q0 -11 11 -6q5 3 16 4t15 2q12 5 28 -16q4 -6 -6 -7q-34 0 -51 -28q-5 -9 -14 -9q-8 1 -9 -2q-4 -12 -12.5 -13t-17.5 4q-10 4 -14 -2q-7 -8 -3 -15q0 -1 8 -13q-2 -1 -8 -3t-8 -5q-13 -23 -48 -21q-21 1 -29 -6q-9 -7 -19.5 -8.5t-18 0t-19.5 5.5
q-5 2 -14 7.5t-16.5 8t-16.5 0.5q-15 -1 -20.5 -1t-20 3t-20.5 4q-5 1 -6 5q-7 24 -31 41q-17 12 -31 12q-16 0 -19 4.5t5 18.5q6 12 0 27t-19 20q-14 6 -14 18q-1 7 -5 9t-7.5 1.5t-4.5 -1.5q-3 -4 -6.5 -6.5t-9.5 -4.5t-8 -3t-5 -8q-5 -15 -9 -16.5t-19 6.5q-14 7 -20 -6
q-7 -16 -16 -23.5t-26 -2.5q-4 2 -8.5 0.5t-3.5 -6.5q5 -28 -12 -49q-8 -11 -18 -12q-2 -1 -13.5 -1.5t-16 -1.5t-12 -4t-13 -8t-9.5 0q-5 5 -9.5 6t-13.5 -2t-10 -3q-3 -1 -6 -4t-4 -5t-3 -7t-2 -7q-2 -3 3 -6q26 -18 1 -40q8 -1 13 -6t5 -10q-1 -4 -0.5 -8t3 -7t4 -4
t6.5 -4t5 -4q7 -5 12 -17q6 -18 5 -29v-7t-0.5 -5.5l-1 -3t-1.5 -3t-3 -2.5t-5 -3l-1 -1q-3 -4 -0.5 -19t6.5 -16q6 -2 18.5 -16t27.5 -9q2 1 3 -3q1 -2 2 -2q41 -43 56 -55q16 -13 45 -13q19 0 21 -14q5 0 11.5 8t12.5 8q11 0 24 -11t15 -22q2 -6 10 -7q9 -1 17 2t18.5 9.5
t13.5 8.5q19 10 33 1q12 -7 18 1q3 7 7.5 6.5t5.5 -8.5q0 -3 6 -10q6 -8 5 -23t-9 -21q-22 -17 -16 -37q11 6 18.5 4t7.5 -16q0 -8 8 -8q6 1 4 -5q-1 -2 -3 -5.5t-2.5 -5t1.5 -4t8 -3.5q2 -1 9 -7t13 -3q8 3 10 -3q4 -9 10 -7q4 0 2.5 5.5t-1.5 7.5q2 3 0.5 6t-1 6t4.5 4
q21 6 33 3q9 -2 17 -1q-34 53 -34 115q0 88 65 150.5t156 62.5q57 0 107 -26q0 1 2.5 4.5t3 4.5t3 3.5t3.5 4t3 4t3.5 3.5t4 3t4.5 3t5 2t5 2q6 1 6 9q0 4 -6 4q-4 0 -13 1t-14 1t-11.5 -3.5t-10.5 -10.5q-3 -5 -7.5 -4t-4.5 6q1 10 -3.5 12.5t-13.5 1.5q-11 -1 -12 8
q0 7 3 8q8 2 13.5 5t11 9.5t7.5 8.5t8.5 12l6.5 10q6 10 15 6q9 -5 4 -14q-4 -7 -5 -14q-2 -16 1 -18q3 1 4 0t3 1l2.5 2.5t2 3.5t2.5 3q6 9 14 13q4 2 8 4.5t7 4.5t6.5 6t5.5 6t5.5 7t5 7t5 7.5t4.5 7.5q4 5 4.5 5.5t7.5 -2.5q4 -3 8 -2t7 3t2 3q-3 4 -1.5 6.5t2 3.5t3.5 2
t4 2q3 2 10.5 9.5t14.5 10.5q6 3 7.5 8t0.5 9t-4.5 12t-3.5 10q-8 21 13 21q5 0 13 7v78q-25 -15 -33 -26v0zM779 384v-166h168l-6 39q-23 102 -118 122q-20 5 -44 5v0zM745 351h-7q-7 1 -10 1q-2 0 -5 -0.5t-5 -0.5h-6v-1q-71 -6 -120 -58t-49 -123q0 -76 54.5 -129.5
t130.5 -53.5q72 0 124 48t59 118h2v33h-168v166v0zM876 152q-6 -56 -48.5 -93.5t-99.5 -37.5q-62 0 -106 43t-44 105q0 57 38.5 98.5t95.5 47.5v-163h164v0zM876 152z" />
    <glyph glyph-name="shujuyuanguanli" unicode="&#xe605;" 
d="M134 691q0 51 50.5 94.5t137.5 69t189.5 25.5t189.5 -25.5t137.5 -69t50.5 -94.5t-50.5 -94.5t-137.5 -69t-189.5 -25.5t-189.5 25.5t-137.5 69t-50.5 94.5zM566 204l55 54q17 18 42 18q6 0 12 -1q18 27 50 27h77q24 0 41 -17q46 43 46 91v0v252v0q0 -51 -50.5 -94.5
t-137.5 -69t-189.5 -25.5t-189.5 25.5t-137.5 69t-50.5 94.5v0v-252v0q0 -51 50.5 -94.5t137.5 -69t190 -25.5q22 0 43 1q5 9 11 16zM566 -81q-22 22 -16 54q-27 18 -27 50v77q0 13 6 25q-12 -1 -17 -1q-103 0 -190 25.5t-137.5 69t-50.5 94.5v0v-252v0q0 -51 50.5 -94.5
t137.5 -68.5t190 -25q48 0 95 6zM944 109h-67l47 47q6 6 0 12l-54 54q-6 6 -12 0l-47 -47v67q0 8 -9 8h-77q-9 0 -9 -8v-67l-47 47q-6 6 -12 0l-54 -54q-6 -6 0 -12l47 -47h-67q-8 0 -8 -9v-77q0 -9 8 -9h67l-47 -47q-6 -6 0 -12l54 -54q6 -6 12 0l47 47v-67q0 -8 9 -8h77
q9 0 9 8v67l47 -47q6 -6 12 0l54 54q6 6 0 12l-47 47h67q8 0 8 9v77q0 9 -8 9zM763 -2q-26 0 -44 18.5t-18 44.5t18 44.5t44 18.5t44.5 -18.5t18.5 -44.5t-18.5 -44.5t-44.5 -18.5z" />
    <glyph glyph-name="fuwuduanjiankong" unicode="&#xe625;" 
d="M832 668h-668q-27 0 -45.5 -18.5t-18.5 -45.5v-442q0 -26 18.5 -44t45.5 -18h320v-114h-157v-14h341v14h-170v114h334q27 0 45.5 18.5t18.5 45.5v440q0 27 -18.5 45.5t-45.5 18.5zM782 427h-102l-120 -239l-113 341l-116 -216h-118v14h110l126 239l114 -341l108 216h111
v-14z" />
    <glyph glyph-name="renwu-copy" unicode="&#xe756;" 
d="M272 159q0 -7 4 -11t11 -4h450q7 0 11 4t4 11v359h-480v-359zM410 181h-41v41h41v-41zM410 259h-41v42h41v-42zM517 398h185q5 0 9 -4t4 -10t-4 -10t-9 -4h-185q-6 0 -10 4t-4 10t4 10t10 4zM517 292h185q5 0 9 -4.5t4 -10t-4 -9.5t-9 -4h-185q-6 0 -10 4t-4 9.5t4 10
t10 4.5zM517 213h185q5 0 9 -4t4 -10t-4 -10t-9 -4h-185q-6 0 -10 4t-4 10t4 10t10 4zM329.5 418q9.5 10 19.5 0l42 -42l69 99q8 12 19.5 4t3.5 -20l-78 -112q-4 -5 -10 -6h-2q-5 0 -9 4l-55 53q-9 10 0.5 20zM738 624h-451q-7 0 -11 -4t-4 -11v-72h480v72q0 7 -4 11t-10 4z
M558 560h-41v41h41v-41zM646 560h-42v41h42v-41zM729 560h-41v41h41v-41zM512 894q-104 0 -198 -40.5t-162.5 -109t-109 -162.5t-40.5 -198t40.5 -198t109 -162.5t162.5 -109t198 -40.5t198 40.5t162.5 109t109 162.5t40.5 198t-40.5 198t-109 162.5t-162.5 109t-198 40.5z
M789 159q0 -22 -15 -37t-37 -15h-450q-22 0 -37 15t-15 37v450q0 22 15 37t37 15h450q22 0 37 -15t15 -37v-450z" />
    <glyph glyph-name="jiaose" unicode="&#xe646;" 
d="M131 318h74q74 0 74 197q0 34 -22.5 57t-54.5 28.5t-64 0t-54.5 -28.5t-22.5 -57q-3 -15 -0.5 -48t7 -66t21 -58t42.5 -25zM455 376h114q24 0 43 13.5t30.5 33t20 50t12.5 55t6.5 57t2.5 47.5v35q0 36 -18.5 64.5t-48.5 43t-66.5 21.5t-72.5 0t-66 -21.5t-49 -43
t-19 -64.5q0 -20 0.5 -35t2.5 -47.5t6 -57t12 -55t19.5 -50t29.5 -33t41 -13.5zM823 318h74q74 0 74 197q0 34 -22.5 57t-54.5 28.5t-64 0t-54 -28.5t-22 -57q-4 -15 -1.5 -48t7 -66t21.5 -58t42 -25zM979 167q-33 32 -93 48.5t-124 12.5q55 -21 86 -57q43 -43 61 -143h115
q0 10 -1 27t-12.5 54.5t-31.5 57.5zM45 167q-20 -20 -31 -57.5t-12.5 -54.5t-1.5 -27h115q18 100 61 143q27 33 82 53q-62 7 -121.5 -7.5t-91.5 -49.5zM250 171q-18 -19 -31.5 -48t-20 -53.5t-10 -51.5t-4 -36.5t-0.5 -15.5h660q0 6 -0.5 15.5t-4 36.5t-9.5 51.5t-19.5 53.5
t-32.5 48q-56 56 -160 77.5t-208.5 0.5t-159.5 -78z" />
    <glyph glyph-name="yewuguanli" unicode="&#xe636;" horiz-adv-x="1025" 
d="M512 78q-127 0 -216.5 89.5t-89.5 216.5t89.5 216.5t216.5 89.5t216.5 -89.5t89.5 -216.5t-89.5 -216.5t-216.5 -89.5zM980 493h-13q-14 0 -25 8t-16 21q-10 29 -23 55q-7 13 -5 27t13 24l9 10q13 13 13 31t-13 31l-92 92q-13 13 -31 13t-31 -13l-12 -12q-22 -22 -51 -9
q-25 13 -52 22q-13 4 -21.5 15.5t-8.5 26.5v17q0 18 -13 31t-31 13h-130q-18 0 -31 -13t-13 -31v-17q0 -15 -8 -26.5t-22 -15.5q-27 -9 -52 -22q-28 -13 -51 9l-12 12q-13 13 -31 13t-31 -13l-92 -92q-13 -13 -13 -31t13 -31l10 -10q10 -10 12 -24t-4 -27q-14 -26 -24 -55
q-4 -13 -15.5 -21t-25.5 -8h-13q-18 0 -31 -13t-13 -31v-130q0 -18 13 -31t31 -13h8q14 0 25.5 -8.5t15.5 -22.5q10 -30 24 -58.5t-8 -51.5l-5 -4q-13 -13 -13 -31t13 -31l92 -92q13 -13 31 -13t31 13l2 2q10 10 24.5 12t27.5 -4q29 -16 61 -26q13 -5 21.5 -16.5t8.5 -25.5
v-2q0 -18 13 -31t31 -13h130q18 0 31 13t13 31v2q0 14 8.5 25.5t22.5 16.5q31 10 61 26q12 6 26.5 4t24.5 -12l2 -2q13 -13 31 -13t31 13l92 92q13 13 13 31t-13 31l-4 4q-22 23 -8.5 51.5t23.5 58.5q4 14 15.5 22.5t26.5 8.5h7q18 0 31 13t13 31v130q0 18 -13 31t-31 13z
M512 288q40 0 68 28t28 68t-28 68t-68 28t-68 -28t-28 -68t28 -68t68 -28v0v0z" />
    <glyph glyph-name="sql" unicode="&#xe61d;" 
d="M330 532l-46 -46q-29 40 -51 40q-17 0 -23 -5q-5 -12 -5 -23.5t5 -16.5q1 -1 7.5 -8.5t16 -17.5t22.5 -20l46 -45q4 -7 14.5 -20.5t13.5 -19.5q11 -23 11 -46q0 -41 -28 -79q-29 -29 -74 -29q-37 0 -63 17q-28 19 -45 63l51 34q26 -51 57 -51q17 0 28.5 11.5t11.5 22.5
q0 17 -6 28q-3 4 -12 11.5t-17.5 16t-15.5 18.5q-10 9 -24.5 23t-21.5 21t-14 15.5t-9 14.5q-17 34 -17 57q0 40 28.5 68t68.5 28q23 0 45 -11q29 -28 46 -51v0zM660 259l57 -85h-74l-29 45q-30 -23 -79 -23q-77 0 -125 57q-52 60 -52 142q0 57 23 103q28 46 63 74
q47 28 85 28q76 0 125 -57q51 -59 51 -142q0 -78 -45 -142v0zM620 316q23 45 23 74q0 57 -34 91q-40 40 -80 40q-45 0 -79.5 -34.5t-34.5 -91.5q0 -62 40 -102q38 -28 68 -28q12 0 46 11l-51 85h74l28 -45v0v0zM740 583h62v-307h91v-68h-159v375h6v0zM978 674v-580h-932v580
h932v0v0zM1018 714h-1012v-654h1012v654v0v0v0z" />
    <glyph glyph-name="icon1" unicode="&#xe601;" 
d="M511 701l-448 -125l448 -134l448 134zM888 426l-376 -145l-388 148h-59l446 -177l449 174h-72zM511 91l-384 162h-65l449 -192l445 191h-64z" />
    <glyph glyph-name="renyuandingwei" unicode="&#xe617;" 
d="M508 738zM414 738.5q0 38.5 27.5 66t66.5 27.5t66 -27.5t27 -66t-27 -66t-66 -27.5t-66.5 27.5t-27.5 66zM571 603h-122q-62 0 -105 -39v-173v-46v-22h92l20 -284h112l19 284h93v10v63v164q-44 43 -109 43zM654 211v-50q79 -11 127.5 -34t48.5 -50q0 -39 -93 -66.5
t-224.5 -27.5t-224.5 27.5t-93 66.5q0 27 48 50t128 34v50q-132 -14 -215.5 -51t-83.5 -83q0 -38 59 -70.5t160.5 -51.5t220.5 -19t220.5 19t160.5 51.5t59 70.5q0 46 -83 82.5t-215 51.5z" />
    <glyph glyph-name="yonghujiankong-copy" unicode="&#xe602;" 
d="M514.5 701q14.5 0 25 10.5t10.5 25.5v117q0 15 -10.5 25.5t-25 10.5t-25 -10.5t-10.5 -25.5v-117q0 -15 10.5 -25.5t25 -10.5zM515 368q57 0 97.5 40.5t40.5 97.5t-40.5 97.5t-97.5 40.5t-97.5 -40.5t-40.5 -97.5t40.5 -97.5t97.5 -40.5zM515 558q21 0 36.5 -15
t15.5 -36.5t-15.5 -36.5t-36.5 -15t-36 15t-15 36.5t15 36.5t36 15zM699 697q44 -18 78 -52.5t52 -78.5q8 -18 27 -18q5 0 10 2v0q12 4 17 15.5t1 22.5q-23 56 -65.5 98.5t-97.5 64.5q-6 3 -11 3q-21 0 -28 -21v0q-4 -11 1 -21.5t16 -14.5zM515 358q-67 0 -125.5 -30.5
t-96.5 -84.5q-10 -16 -6 -35q5 -19 22 -28q10 -5 20 -5q23 0 36 19q25 36 65 57t85 21t85 -21t65 -57q13 -19 36 -19q11 0 20 5q17 9 22 28t-6 35q-37 54 -96 84.5t-126 30.5zM330 67q-44 18 -78.5 52t-52.5 78q-7 19 -27 19q-5 0 -9 -2h-1q-12 -4 -17 -15.5t0 -23.5
q22 -55 64.5 -97.5t98.5 -65.5q5 -2 11 -2q21 0 27 20v1q4 10 -1 20.5t-15 15.5v0zM987 417h-117q-15 0 -25.5 -10.5t-10.5 -25t10.5 -25t25.5 -10.5h117q15 0 25.5 10.5t10.5 25t-10.5 25t-25.5 10.5zM866 214h-1q-4 2 -9 2q-19 0 -27 -19q-18 -44 -52 -78t-78 -52
q-11 -5 -16 -15t-1 -21v-1q7 -20 28 -20q5 0 11 2q55 23 97.5 65.5t65.5 97.5q4 12 -1 23.5t-17 15.5v0zM162 550h1q4 -2 9 -2q20 0 27 18q18 44 52.5 78.5t78.5 52.5q10 4 15 14.5t1 21.5v1q-6 20 -27 20q-6 0 -11 -3q-56 -22 -98.5 -64.5t-64.5 -98.5q-5 -11 0 -22.5
t17 -15.5v0zM195 381.5q0 14.5 -10.5 25t-25.5 10.5h-117q-15 0 -25.5 -10.5t-10.5 -25t10.5 -25t25.5 -10.5h117q15 0 25.5 10.5t10.5 25zM514.5 62q-14.5 0 -25 -10.5t-10.5 -25.5v-117q0 -15 10.5 -25.5t25 -10.5t25 10.5t10.5 25.5v117q0 15 -10.5 25.5t-25 10.5z" />
    <glyph glyph-name="c22_hide" unicode="&#xe51d;" 
d="M945 703v0q8 -2 22 12q4 7 12.5 13.5t14.5 6.5q3 0 3 -8t3 -10q0 -1 2 -3.5l2 -2.5q-2 -5 -4 -26t0 -22q-1 -7 -3 -9q-2 -3 -4.5 -3t-6.5 0.5t-5 0.5q-1 -1 -4.5 -3.5t-3.5 -3.5q-2 -6 6.5 -22.5t6.5 -22.5v0q0 -3 -3 -15q-1 -3 -3 -3q0 -1 -2 -0.5t-4.5 1t-3.5 0.5
q-1 2 -1.5 5t-0.5 5t-1 2t-4 -3v-1q-2 -14 -8 -17q-2 -3 -10 -3v0q-1 -1 -1 -2q5 -3 5 -9q1 -3 -2.5 -6t-4.5 -2q-4 0 -10 2t-9 2v0q-1 0 -2.5 -5t-2.5 -5q-1 -4 -6 -10l-5 -6h-1v-1q-2 0 -11 -8q0 -2 -1.5 -6t-1.5 -6q-3 -2 -16 -7t-18 -16q0 -4 -5 -12v0q-2 0 -6.5 -0.5
t-6.5 -0.5q0 4 2 7.5t6 3.5q0 1 -2 4.5t-3 5.5t0 2v1.5v0.5h1q0 3 3.5 8t2.5 10q-2 10 -12 6l-17.5 -21.5l-17.5 -21.5q-1 -1 -18 -5q-3 -3 -4 -8.5t4 -7.5q0 -2 1.5 -4.5t1.5 -5.5l7 2t10 1q3 -6 3 -11v0q1 -1 4 -4.5t5 -3.5v0v0q3 0 9 9.5t14 9.5q4 1 10.5 -1.5t10.5 -1.5
q4 2 11 -2q0 -10 -3 -10l-8.5 -4l-8.5 -4q1 -2 -7 -10t-10 -7q0 -1 -1.5 -3l-3 -4l-1.5 -2q-2 -2 -2 -4v0q-3 -7 -3 -15v-0.5v-0.5h1q0 -1 1 -1.5l1 -0.5q14 -2 22.5 -22t10.5 -21v-0.5v-0.5q3 -3 10 -7t10 -6v-1q5 -2 -4 -4q-4 -2 -4 -3q10 -6 13 -13v0q0 -4 -5.5 -8.5
t-12 -8.5t-7.5 -6v0v0q1 -1 7 -1q4 9 26 0v0q-1 -3 -5.5 -6.5t-4.5 -5.5l2 1t3.5 2t2.5 -1v-2q1 -4 0 -5q-1 -2 -3.5 -2h-2.5h-1q0 -4 2.5 -11.5t1.5 -11t-9 -3.5q-7 -12 -7 -23q-3 -2 -5 -7.5t-4 -7.5q-7 0 -7 -1q0 -4 7 -5q0 -2 -3 -4t-2 -5v-14q-5 0 -6 -5.5t-5 -7.5
q-1 -3 -6.5 -5.5t-6.5 -2.5q0 -1 -3.5 -7t-7 -11t-5.5 -5v0q-16 -6 -16 -10v-2v-2q-1 0 -9.5 -6.5t-14.5 -8.5t-12 0q-3 1 -6 -4.5t-6 -5.5q-2 -2 -6 1.5t-4 5.5q-3 3 -5 -2v-1q-2 -7 -10.5 -12.5t-15.5 -5.5q-1 -1 -11 -2.5t-17.5 -3.5t-8.5 -5v0q0 -8 -5 -8q-1 -2 0 -6
q2 1 4 0q2 -2 1 -8q-4 -2 -11 -2v1q-1 0 -2 2t-3 5t-2 4q-3 3 -3 4.5t1.5 5t1.5 4.5h-1v0q-1 0 -5 -1.5t-7 -2.5v1l-2 2q-8 10 -8 5q5 -3 0 -4q0 -1 -18 1q-5 0 -14.5 4t-8.5 10v0q-1 1 0 5.5t1 5.5q-1 1 -1 2q-21 2 -21 4q-2 0 -3 2t-1 3q-2 1 -6 -1q-7 -10 -11 -10v-1
q-6 0 -8 -1q0 -4 -10 -4q0 1 -1.5 2t-2.5 2q-8 0 -8 -3q-3 -1 -7.5 1.5t-5.5 2.5q-4 -5 -6 -5q-1 -1 -5.5 0t-5.5 0q-1 0 -1 -5q3 -3 2 -12q2 0 2 -6v-7q-1 -2 -6 -2v1q-9 1 -9 12q0 1 -3 5q-3 0 -5 -3t-4 -3v0q-1 0 -2.5 0.5t-3.5 0.5q0 2 -3 5l-5.5 5.5l-2.5 2.5l-3 -0.5
t-3 0.5q-3 0 -4 3v0v10.5t-1 8.5q-5 2 -6 3q-2 1 -4 9t-4 10q-3 3 -7.5 0t-5.5 -3v0q-3 1 -4 2t-1 4v5q-1 3 3 18v1q0 1 3 3.5t6.5 4.5t4.5 4q1 0 2 1t4 17.5t1 19.5q0 1 -4 3.5t-4 3.5q-1 0 -1 2h-1q0 6 -6 13q-5 2 -6 0q-2 -1 -2.5 -6.5t-3.5 -6.5q-2 -1 -4 1l-4.5 4.5
l-3.5 3.5q-2 0 -8 3t-7 4v-1q-5 -1 -12 -8q-5 -1 -15 -8.5t-14 -9.5q-5 -2 -17.5 -3t-18.5 3q0 1 1 13q-6 4 -6 9q-1 0 -3 0.5t-4.5 1l-2.5 0.5q-2 1 -9 6.5t-12 5.5l-3.5 -1t-7.5 -3t-4 -3q0 -9 -1 -10q-5 -2 -10 -1q-2 1 -1 9l1 8q-5 4 -13 1q-1 0 -5 -2.5t-6 -1.5
q-3 1 -10 9q-4 1 -17 1q-2 1 -13 17q-1 0 -5 1t-6 3q-1 0 -1.5 0.5l-0.5 0.5q-4 6 -5 17q-1 1 -5.5 1t-5.5 1q-1 0 -3 3.5t-2 4.5q-2 1 -6 3.5t-6 3.5v1q0 1 -2.5 4t-4.5 5.5l-2 2.5q-1 0 -6.5 -1t-7.5 -1t-6 1t-6 4t-2 11q-3 2 -7.5 7t-8 7t-9.5 2q-1 1 -3 2q0 8 3 10v0
q2 2 2 5.5t-0.5 9t-0.5 6.5v0q0 4 1 6q3 0 6.5 -1.5t5.5 -2.5q0 1 0.5 1.5t0.5 1.5v0l-4 24v0q-1 4 2 8.5t3 6.5q0 3 -2 4q-11 3 -7 18q1 5 -10 14t-14 6l-4 4l1.5 8t0.5 10q-9 4 -16 12v0.5v0.5q-3 4 -0.5 7.5t7.5 5.5q1 3 1 20v0q0 3 -2 3.5t-5.5 -0.5t-4.5 -1q-6 5 -3 11
q3 1 4 3.5t0 4.5t-3 2q0 1 1.5 2.5l4 4t2.5 3.5q2 0 15 7.5t20 5.5q3 -1 4.5 -6t6.5 -5q10 8 17.5 10.5t22.5 2.5v0l5 0.5t9.5 1.5l4.5 1q7 4 6 10l8.5 10l8.5 10q3 14 0 26v0q2 6 -1 9q-3 4 3 4q8 3 20 0t16 -3v0q1 1 1.5 9.5t7.5 11.5q8 12 9 17v0q2 2 7 1q0 -4 13 -7
t15 -3v1q5 0 6 4v3.5v7.5t1 4v0q1 4 4.5 6t10 3t7.5 2v0q1 1 3.5 5.5t7.5 4.5q3 1 6.5 -0.5t3.5 -5.5v0q0 -1 1 -4l1 -3q-1 -3 7 -9.5t10 -6.5q9 -2 11 -6q0 -14 4 -17q0 -1 1 -5.5t1.5 -6.5t-0.5 -5t-3 -5v-1q-10 -10 -2 -19q2 -2 17 -5q5 1 29 -11t23 -20v0q1 -12 7 -15v0
v-1v0q0 -9 1 -9v0l2 -1v-1q3 0 9.5 -1t9.5 -1q18 -6 19 -6h1h18h18v0q6 -1 15 -8t13 -7q4 2 8.5 0t6.5 -5v0q4 0 6.5 -1t5.5 -4l4 -4q1 -2 4 -2q2 4 29 13.5t27 13.5v0v1q4 1 14.5 -1.5t15.5 -1.5q1 5 14 16q1 1 7 6t9 8t2 4q0 1 -1 4t-1.5 5t-1 5.5t-0.5 6t0.5 5t2.5 4
t5 1.5v-1h1q18 -11 18 -7q3 0 9 7t7 11q19 3 20 7q2 1 4 4.5t3.5 6l1.5 2.5q3 4 12 6v0v0q7 8 12 8q0 1 5 1t11 0.5t8 0.5q0 2 -0.5 4.5t-0.5 3.5q-2 8 -21 18q-1 0 -4 -2t-5 -2q-1 -1 -2.5 -3.5t-2.5 -3.5q-2 0 -8.5 2t-8.5 1v0q-2 0 -7 -2t-9 -2q-3 5 -3 6q8 8 6 12
q0 2 5 27h1q2 3 4 3q22 0 28 8l1 0.5l1 0.5q0 3 2 10t2 11v0q0 3 2.5 9t5 9.5l2.5 3.5q3 8 -9 15q0 2 -1 2q1 6 6 10q5 1 13 4q2 3 10.5 6.5t13.5 3.5q2 0 6.5 -2t6.5 -2v0q13 1 19 -2v0h1v0v0q1 -1 6.5 -7t11.5 -13t6 -9v0v-0.5v-1t0.5 -0.5h0.5v-1q10 -9 11 -9v-1v0
q0 -6 7 -12h1q2 -9 4 -9v-1h17q0 -1 2.5 -1h5h4.5l2 -1l2 -1q0 -5 13 -8q0 -4 4.5 -11.5t8.5 -7.5v0v0v0zM868 112q2 16 2 17v0q0 4 2 8t2 7v0q0 13 12 24q1 1 5 1.5t5 0.5v0q7 -1 8 -3.5t-1 -6.5t-2 -6v0q0 -2 1.5 -14.5t-0.5 -13.5q0 -1 -1.5 -4t-1.5 -4q-1 -1 -4.5 -3.5
t-3.5 -4.5v0q-1 -3 -2 -10t-4 -11h-1v0v0q0 1 -2.5 4t-3.5 4v0q-9 11 -10 15v0v0v0zM645 25q3 1 11 3t12.5 2.5t11 -0.5t7.5 -5q0 -1 -0.5 -3.5t-3.5 -8.5t-5 -11v-1v0q-2 -3 -7.5 -7t-10 -5.5t-5.5 -0.5v0v0q-3 -1 -10 2t-7 5v0q-3 12 2 18.5t5 11.5v0v0v0v0zM645 25z" />
    <glyph glyph-name="taizhang104" unicode="&#xe6b0;" 
d="M954 696h-870q-21 0 -34.5 -13t-13.5 -34v-142h968v142q0 20 -15 33.5t-35 13.5zM184 564q-11 -11 -26.5 -11t-26.5 11t-11 26.5t11 26.5q10 11 26.5 11t26.5 -11q11 -11 11 -26.5t-11 -26.5zM297 564q-11 -11 -26.5 -11t-26.5 11t-11 26.5t10 26.5q11 11 27 11t27 -11
t11 -26.5t-11 -26.5zM409 564q-11 -11 -26.5 -11t-26.5 11t-11 26.5t11 26.5t27 11t26 -11q11 -11 11 -26.5t-11 -26.5zM35 457v-494q0 -20 14 -34t35 -14h870q20 0 34.5 14t14.5 34v494h-968zM527 61h-343q-10 0 -17.5 7.5t-7.5 18.5t7.5 18.5t17.5 7.5h343q11 0 18.5 -7.5
t7.5 -18.5t-7.5 -18.5t-18.5 -7.5zM527 189h-343q-10 0 -17.5 7.5t-7.5 18.5t7.5 18.5t17.5 7.5h343q11 0 18.5 -7.5t7.5 -18.5t-7.5 -18.5t-18.5 -7.5zM527 317h-343q-10 0 -17.5 7.5t-7.5 18.5t7.5 18.5t17.5 7.5h343q11 0 18.5 -7.5t7.5 -18.5t-7.5 -18.5t-18.5 -7.5z
M876 87q0 -11 -7.5 -18.5t-18.5 -7.5h-251q-11 0 -18.5 7.5t-7.5 18.5v256q0 11 7.5 18.5t18.5 7.5h251q11 0 18.5 -7.5t7.5 -18.5v-256zM625 317h199v-204h-199v204z" />
    <glyph glyph-name="zidian" unicode="&#xe626;" 
d="M166 730v35q0 14 10 24t24 10h693q-9 15 -29.5 25t-39.5 10h-624q-28 0 -48.5 -20.5t-20.5 -48.5v-762q0 -28 20.5 -48.5t48.5 -20.5h35v762h-35q-14 0 -24 10t-10 24zM512 696h-242v-762h554q28 0 48.5 20.5t20.5 48.5v693h-381zM754 315h-346v34h346v-34v0zM754 419
h-346v34h346v-34v0zM754 522h-346v35h346v-35v0z" />
    <glyph glyph-name="gongneng" unicode="&#xe613;" 
d="M0 779q0 20 14 34t34 14h334q20 0 34 -14t14 -34v-334q0 -20 -14 -34t-34 -14h-334q-20 0 -34 14t-14 34v334zM706 882q14 14 34 14t34 -14l236 -236q14 -14 14 -34t-14 -34l-236 -236q-14 -14 -34 -14t-34 14l-236 236q-14 14 -14 34t14 34zM525 254q0 20 14 34t34 14
h334q20 0 34 -14t14 -34v-334q0 -20 -14 -34t-34 -14h-334q-20 0 -34 14t-14 34v334zM0 254q0 20 14 34t34 14h334q20 0 34 -14t14 -34v-334q0 -20 -14 -34t-34 -14h-334q-20 0 -34 14t-14 34v334z" />
  </font>
</defs>
</svg>
